<?xml version="1.0" encoding="UTF-8"?> <svg xmlns="http://www.w3.org/2000/svg" data-name="Layer 1" viewBox="0 0 1440 700"><defs><clipPath id="a"><circle cx="1164.16" cy="425.12" r="35.62" fill="#f95b61"></circle></clipPath></defs><path d="M859.65 275.39h-21.86a6.29 6.29 0 0 0-6.29 6.29v128a9.08 9.08 0 0 0 9.08 9.09h247.57" fill="none" stroke="#ffca89" stroke-miterlimit="10" stroke-width="3" opacity=".5"></path><path fill="#fdddbd" opacity=".3" d="M0 0h1440v603.63H0z"></path><path fill="#ffa300" d="M64.43 500.53h3.6v3.59h-3.6zm-.07-9.65h3.6v3.59h-3.6zm.04-9.65H68v3.59h-3.6zm.03-9.65h3.6v3.59h-3.6zm-.06-9.65h3.6v3.59h-3.6zm9.72 38.63h3.6v3.59h-3.6zm-.06-9.65h3.6v3.59h-3.6zm.03-9.65h3.6v3.59h-3.6zm.04-9.65h3.6v3.59h-3.6zm-.07-9.65h3.6v3.59h-3.6zm9.73 38.54h3.6v3.59h-3.6zm-.07-9.65h3.6v3.59h-3.6zm.04-9.65h3.6v3.59h-3.6zm.03-9.65h3.6v3.59h-3.6zm-.06-9.65h3.6v3.59h-3.6zm9.72 38.63h3.6v3.59h-3.6zm-.06-9.65h3.6v3.59h-3.6zm.03-9.65h3.6v3.59h-3.6zm.04-9.65h3.6v3.59h-3.6zm-.07-9.65h3.6v3.59h-3.6zM64.38 568.08h3.6v3.59h-3.6zm.04-9.65h3.6v3.59h-3.6zm.03-9.65h3.6v3.59h-3.6zm-.06-9.65h3.6v3.59h-3.6zm.03-9.65h3.6v3.59h-3.6zm9.63 38.63h3.6v3.59h-3.6zm.03-9.65h3.6v3.59h-3.6zm.04-9.65h3.6v3.59h-3.6zm-.07-9.65h3.6v3.59h-3.6zm.04-9.65h3.6v3.59h-3.6zm9.62 38.54h3.6v3.59h-3.6zm.04-9.65h3.6v3.59h-3.6zm.03-9.65h3.6v3.59h-3.6zm-.06-9.65h3.6v3.59h-3.6zm.03-9.65h3.6v3.59h-3.6zm9.63 38.63h3.6v3.59h-3.6zm.03-9.65h3.6v3.59h-3.6zm.04-9.65h3.6v3.59h-3.6zm-.07-9.65h3.6v3.59h-3.6zm.04-9.65h3.6v3.59h-3.6zm-19.4-9.62h3.6v3.59h-3.6zm9.67-.06h3.6v3.59h-3.6zm.03-9.65h3.6v3.59h-3.6zm9.63 9.68h3.6v3.59h-3.6zm.04-9.65h3.6v3.59h-3.6zm-29-.03h3.6v3.59h-3.6zm9.67-.04h3.6v3.59h-3.6zm-9.63 9.69h3.6v3.59h-3.6zm-38.67-19.31h3.6v3.59h-3.6zm-.06-9.65h3.6v3.59h-3.6zm.03-9.65h3.6v3.59h-3.6zm.04-9.65h3.6v3.59h-3.6zm-.07-9.65h3.6v3.59h-3.6zm9.73 38.64h3.6v3.59h-3.6zm-.07-9.65h3.6v3.59h-3.6zm.04-9.65H39v3.59h-3.6zm.03-9.65h3.6v3.59h-3.6zm-.06-9.65h3.6v3.59h-3.6zm9.72 38.63h3.6v3.59h-3.6zm-.06-9.65h3.6v3.59h-3.6zm.03-9.65h3.6v3.59h-3.6zm.04-9.65h3.6v3.59h-3.6zm-.07-9.65h3.6v3.59h-3.6zm9.73 38.54h3.6v3.59h-3.6zm-.07-9.65h3.6v3.59h-3.6zm.04-9.65h3.6v3.59h-3.6zm.03-9.65h3.6v3.59h-3.6zm-.06-9.65h3.6v3.59h-3.6zM25.72 568.04h3.6v3.59h-3.6zm.03-9.65h3.6v3.59h-3.6zm.04-9.65h3.6v3.59h-3.6zm-.07-9.65h3.6v3.59h-3.6zm.04-9.65h3.6v3.59h-3.6zm9.62 38.63h3.6v3.59h-3.6zm.04-9.65h3.6v3.59h-3.6zm.03-9.65h3.6v3.59h-3.6zm-.06-9.65h3.6v3.59h-3.6zm.03-9.65h3.6v3.59h-3.6zm9.63 38.64h3.6v3.59h-3.6zm.03-9.65h3.6v3.59h-3.6zm.04-9.65h3.6v3.59h-3.6zm-.07-9.65h3.6v3.59h-3.6zm.04-9.65h3.6v3.59h-3.6zm9.62 38.53h3.6v3.59h-3.6zm.04-9.65h3.6v3.59h-3.6zm.03-9.65h3.6v3.59h-3.6zm-.06-9.65h3.6v3.59h-3.6zm.03-9.64h3.6v3.59h-3.6zm-19.39-9.62h3.6v3.59h-3.6zm9.66.03h3.6v3.59h-3.6zm.04-9.65h3.6v3.59h-3.6zm9.63 9.59h3.6v3.59h-3.6zm.03-9.65h3.6v3.59h-3.6zm-28.99.03h3.6v3.59h-3.6zm9.67-.03H39v3.59h-3.6zm-9.63 9.68h3.6v3.59h-3.6zm38.66 86.53h3.6v3.59h-3.6zm-.07-9.65h3.6v3.59h-3.6zm.04-9.65H68v3.59h-3.6zm.03-9.65h3.6V581h-3.6z"></path><path fill="#ffa300" d="M64.37 567.76h3.6v3.59h-3.6zm9.72 38.64h3.6v3.59h-3.6zm-.06-9.65h3.6v3.59h-3.6zm.03-9.65h3.6v3.59h-3.6zm.04-9.65h3.6v3.59h-3.6zm-.07-9.65h3.6v3.59h-3.6zm9.73 38.53h3.6v3.59h-3.6zm-.07-9.65h3.6v3.59h-3.6zm.04-9.65h3.6v3.59h-3.6zm.03-9.65h3.6v3.59h-3.6zm-.06-9.65h3.6v3.59h-3.6zm9.72 38.64h3.6v3.59h-3.6zm-.06-9.65h3.6v3.59h-3.6zm.03-9.65h3.6v3.59h-3.6zm.04-9.65h3.6v3.59h-3.6zm-.07-9.65h3.6v3.59h-3.6zM64.38 673.91h3.6v3.59h-3.6zm.04-9.65h3.6v3.59h-3.6zm.03-9.65h3.6v3.59h-3.6zm-.06-9.65h3.6v3.59h-3.6zm.03-9.65h3.6v3.59h-3.6zm9.63 38.63h3.6v3.59h-3.6zm.03-9.65h3.6v3.59h-3.6zm.04-9.65h3.6v3.59h-3.6zm-.07-9.65h3.6v3.59h-3.6zm.04-9.65h3.6v3.59h-3.6zm9.62 38.54h3.6v3.59h-3.6zm.04-9.65h3.6v3.59h-3.6zm.03-9.65h3.6v3.59h-3.6zm-.06-9.65h3.6v3.59h-3.6zm.03-9.65h3.6v3.59h-3.6zm9.63 38.63h3.6v3.59h-3.6zm.03-9.65h3.6v3.59h-3.6zm.04-9.65h3.6v3.59h-3.6zm-.07-9.65h3.6v3.59h-3.6zm.04-9.64h3.6v3.59h-3.6zm-19.4-9.62h3.6v3.59h-3.6zm9.67-.07h3.6v3.59h-3.6zm.03-9.65h3.6v3.59h-3.6zm9.63 9.69h3.6v3.59h-3.6zm.04-9.65h3.6v3.59h-3.6zm-29-.04h3.6v3.59h-3.6zm9.67-.04h3.6v3.59h-3.6zm-9.63 9.69h3.6v3.59h-3.6zm-38.67-19.31h3.6v3.59h-3.6zm-.06-9.65h3.6v3.59h-3.6zm.03-9.65h3.6v3.59h-3.6zm.04-9.65h3.6v3.59h-3.6zm-.07-9.65h3.6v3.59h-3.6zm9.73 38.64h3.6v3.59h-3.6zm-.07-9.65h3.6v3.59h-3.6zm.04-9.65H39v3.59h-3.6zm.03-9.65h3.6V581h-3.6zm-.06-9.65h3.6v3.59h-3.6zm9.72 38.63h3.6v3.59h-3.6zm-.06-9.65h3.6v3.59h-3.6zm.03-9.65h3.6v3.59h-3.6zm.04-9.65h3.6v3.59h-3.6zm-.07-9.65h3.6v3.59h-3.6zm9.73 38.54h3.6v3.59h-3.6zm-.07-9.65h3.6v3.59h-3.6zm.04-9.65h3.6v3.59h-3.6zm.03-9.65h3.6v3.59h-3.6zm-.06-9.65h3.6v3.59h-3.6zM25.72 673.87h3.6v3.59h-3.6zm.03-9.65h3.6v3.59h-3.6zm.04-9.65h3.6v3.59h-3.6zm-.07-9.65h3.6v3.59h-3.6zm.04-9.65h3.6v3.59h-3.6zm9.62 38.64h3.6v3.59h-3.6zm.04-9.65h3.6v3.59h-3.6zm.03-9.65h3.6v3.59h-3.6zm-.06-9.65h3.6v3.59h-3.6zm.03-9.65h3.6v3.59h-3.6zm9.63 38.63h3.6v3.59h-3.6zm.03-9.65h3.6v3.59h-3.6zm.04-9.65h3.6v3.59h-3.6zm-.07-9.65h3.6v3.59h-3.6zm.04-9.65h3.6v3.59h-3.6zm9.62 38.54h3.6v3.59h-3.6zm.04-9.65h3.6v3.59h-3.6zm.03-9.65h3.6v3.59h-3.6zm-.06-9.65h3.6v3.59h-3.6zm.03-9.65h3.6v3.59h-3.6zm-19.39-9.62h3.6v3.59h-3.6zm9.66.03h3.6v3.59h-3.6zm.04-9.65h3.6v3.59h-3.6zm9.63 9.59h3.6v3.59h-3.6zm.03-9.65h3.6v3.59h-3.6zm-28.99.04h3.6v3.59h-3.6zm9.67-.04H39v3.59h-3.6zm-9.63 9.69h3.6v3.59h-3.6z"></path><path d="M1228.24 498.07h95.4a10 10 0 0 0 10-10V294.43" fill="none" stroke="#ffca89" stroke-miterlimit="10" stroke-width="3" opacity=".5"></path><path d="M1391.22 131.74a48.48 48.48 0 0 0 48.78 48.15l-.7-97a48.41 48.41 0 0 0-48.08 48.85z" fill="#fa8683"></path><path fill="#f95b61" d="M1222.49 214.02h2.53v2.54h-2.53zm0 6.76h2.53v2.54h-2.53zm0 6.76h2.53v2.54h-2.53zm0 6.76h2.53v2.54h-2.53zm0 6.76h2.53v2.54h-2.53zm-6.75-27.04h2.53v2.54h-2.53zm0 6.76h2.53v2.54h-2.53zm0 6.76h2.53v2.54h-2.53zm0 6.76h2.53v2.54h-2.53zm-6.75-20.28h2.53v2.54h-2.53zm0 6.76h2.53v2.54h-2.53zm0 6.76h2.53v2.54h-2.53zm-6.75-13.52h2.53v2.54h-2.53zm0 6.76h2.53v2.54h-2.53zm-6.75-6.76h2.53v2.54h-2.53z"></path><path fill="#fa8683" d="M1070.17 434.24l-52.91 53h52.91v-53z"></path><path d="M1161.52 388.7h-292a10.28 10.28 0 0 1-10.49-10V185.5a10.28 10.28 0 0 1 10.49-10h292a10.28 10.28 0 0 1 10.49 10v193.2a10.22 10.22 0 0 1-10.49 10z" fill="#f95b61"></path><path d="M859.05 196.8v-11.3a10.28 10.28 0 0 1 10.49-10h292a10.28 10.28 0 0 1 10.49 10v11.3" fill="#fff"></path><path fill="none" stroke="#fff" stroke-linejoin="round" stroke-width="3" d="M1172.12 275.6h-25.69l-6.21-39.33-5.74 28.77-6.69-9.1h-11l-5.25 19.66h-7.17l-5.74-39.33-6.22 39.33-6.21-28.09-5.26 28.09-6.69-9.66h-5.74l-6.21 9.66h-23.9l-5.26-53.48-6.69 53.48-6.22-43.93-5.73 43.93-6.22-19.32-6.21 19.32h-10.04l-6.78-10.56-6.6 10.56h-6.22l-6.21-10.33-6.7 10.33h-48.16l-7.65-28.32-8.12 28.32-8.13-11.23-8.13 11.23H859.1"></path><path d="M897.24 341.5h200.91a6.6 6.6 0 0 1 6.83 6.35 6.6 6.6 0 0 1-6.83 6.35H897.24a6.61 6.61 0 0 1-6.84-6.35 6.61 6.61 0 0 1 6.84-6.35zm0-29.26h200.91a6.6 6.6 0 0 1 6.83 6.35 6.6 6.6 0 0 1-6.83 6.35H897.24a6.61 6.61 0 0 1-6.84-6.35 6.61 6.61 0 0 1 6.84-6.35z" fill="#dc3240" opacity=".4"></path><ellipse cx="906.22" cy="186.14" rx="3.29" ry="3.3" fill="#f95b61"></ellipse><path fill="#f95b61" d="M915.19 182.86h6.59v6.6h-6.59zm-25.14 6.58l3.89-6.6 3.79 6.6h-7.68zM832.01 389.8h1.05v5.56h-1.05zm-4.708.564l1.034-.183.966 5.476-1.034.182zm-4.532 1.236l.99-.36 1.89 5.22-.99.36-1.89-5.22zm-4.26 2.09l.91-.52 2.78 4.81-.92.53-2.77-4.82zm-3.73 2.75l.8-.68 3.57 4.26-.81.68-3.56-4.26zm-3.2 3.46l.67-.81 4.26 3.57-.68.81-4.25-3.57zm-2.64 3.92l.52-.91 4.81 2.78-.53.91-4.8-2.78zm-1.94 4.3l.36-.99 5.21 1.9-.36.99-5.21-1.9zm-1.214 4.61l.182-1.033 5.466.961-.182 1.035zm-.186 3.62h5.55v1.05h-5.55zm.26 4.702l5.465-.967.182 1.034-5.465.967zm1.14 4.598l5.22-1.9.36.99-5.22 1.9-.36-.99zm1.88 4.34l4.8-2.78.53.91-4.81 2.78-.52-.91zm2.69 3.86l4.25-3.58.67.81-4.25 3.57-.67-.8zm3.21 3.37l3.57-4.26.8.68-3.56 4.26-.81-.68zm3.82 2.85l2.77-4.82.92.53-2.78 4.81-.91-.52zm4.13 2.07l1.9-5.22.99.36-1.9 5.22-.99-.36zm4.679 1.315l.965-5.475 1.034.182-.965 5.475zm4.601-4.975h1.05v5.56h-1.05zm3.713-.19l1.034-.182.966 5.476-1.034.182zm3.697-1l.99-.36 1.89 5.23-.98.36-1.9-5.23zm3.39-1.52l.91-.53 2.78 4.82-.91.52-2.78-4.81zm3.18-2.05l.8-.68 3.57 4.26-.81.68-3.56-4.26zm2.79-2.61l.68-.81 4.25 3.58-.67.8-4.26-3.57zm2.11-3.01l.52-.91 4.81 2.78-.53.91-4.8-2.78zm1.69-3.4l.36-.99 5.21 1.9-.36.99-5.21-1.9zm1.05-3.57l.182-1.034 5.466.962-.182 1.034zm.48-4.78h5.55v1.05h-5.55zm-6.143-2.122l5.439-.943.178 1.029-5.439.943zm4.653-5.248l5.22-1.91.36.99-5.22 1.91-.36-.99zm-1.66-3.35l4.81-2.78.52.91-4.8 2.78-.53-.91zm-2.18-3.04l4.26-3.57.67.8-4.25 3.58-.68-.81zm-2.76-2.57l3.56-4.26.81.68-3.57 4.26-.8-.68zm-3.18-2.13l2.77-4.81.91.52-2.77 4.82-.91-.53zm-3.46-1.36l1.9-5.22.99.36-1.9 5.22-.99-.36zm-3.588-.989l.965-5.475 1.034.182-.965 5.476z"></path><g opacity=".5"><path fill="none" stroke="#ffca89" stroke-miterlimit="10" stroke-width="3" d="M1090.89 506.33H925.26"></path><path d="M924.57 503.39a3 3 0 1 1-2.35 2.35 3 3 0 0 1 2.35-2.35z" fill="#ffca89"></path><ellipse cx="879.93" cy="477.63" rx="3" ry="3" fill="#ffca89"></ellipse><path d="M961.2 505.83v-21.9a6.27 6.27 0 0 0-6.29-6.3h-74" fill="none" stroke="#ffca89" stroke-miterlimit="10" stroke-width="3"></path></g><path data-name="SVGID" d="M1228.63 542.69H1099.7c-4.85 0-8.81-4.45-8.81-9.89V319.31c0-5.44 4-9.89 8.81-9.89h128.93c4.84 0 8.81 4.45 8.81 9.89V532.8c0 5.44-3.97 9.89-8.81 9.89z" fill="#ffa300"></path><path data-name="SVGID" d="M1213.5 524.77h-98.67c-3.71 0-6.75-3.77-6.75-8.37V335.71c0-4.6 3-8.37 6.75-8.37h98.67c3.71 0 6.74 3.77 6.74 8.37V516.4c0 4.6-3.03 8.37-6.74 8.37z" fill="#fdddbd" opacity=".3"></path><circle cx="1164.16" cy="425.12" r="35.62" fill="#f95b61"></circle><g clip-path="url(#a)" fill="none" stroke="#fff" stroke-miterlimit="10" stroke-width="1.77"><circle cx="1211.42" cy="425.24" r="71.24"></circle><circle cx="1211.42" cy="425.24" r="59.36"></circle><circle cx="1116.91" cy="425.24" r="71.24"></circle><circle cx="1116.91" cy="425.24" r="59.36"></circle><path d="M1164.16 386.89v76.46m35.62-30.59h-71.24m71.36-15.27h-71.24"></path></g><rect x="1240.7" y="563.69" width="137.64" height="6.97" rx="3.48" fill="#f95b61"></rect><rect x="1240.7" y="595.87" width="89.9" height="6.97" rx="3.48" fill="#f95b61"></rect><rect x="1240.7" y="628.06" width="105.91" height="6.97" rx="3.48" fill="#f95b61"></rect><rect x="1357.19" y="595.87" width="36.89" height="6.97" rx="3.48" fill="#f95b61"></rect><rect x="1240.7" y="579.78" width="58.31" height="6.97" rx="3.48" fill="#f95b61"></rect><rect x="1317.07" y="611.97" width="29.54" height="6.97" rx="3.48" fill="#f95b61"></rect><rect x="1277.83" y="611.97" width="29.54" height="6.97" rx="3.48" fill="#f95b61"></rect><rect x="1240.71" y="611.97" width="27.3" height="6.97" rx="3.48" fill="#f95b61"></rect><circle cx="1406.75" cy="599.36" r="3.42" fill="#f95b61"></circle><rect x="1357.19" y="628.12" width="6.84" height="6.84" rx="3.42" transform="rotate(90 1360.615 631.545)" fill="#f95b61"></rect><path fill="#f95b61" d="M1338.67 602.78l3.97-6.84 3.97 6.84h-7.94z"></path><rect x="1308.7" y="579.78" width="6.84" height="6.84" rx="3.42" transform="rotate(90 1312.115 583.205)" fill="#f95b61"></rect><g opacity=".5"><path d="M1356.34 350.2v33.52a6.53 6.53 0 0 0 6.53 6.53h46" fill="none" stroke="#ffca89" stroke-miterlimit="10" stroke-width="3"></path><path d="M1408.25 386.62a3 3 0 1 1-2.35 2.36 3 3 0 0 1 2.35-2.36z" fill="#ffca89"></path></g><path fill="#ffa300" d="M1397.77 98.77h3.59v3.6h-3.59zm9.65-.07h3.59v3.6h-3.59zm9.65.04h3.59v3.6h-3.59zm9.65.03h3.59v3.6h-3.59zm9.65-.06h3.59v3.6h-3.59zm-38.64 9.72h3.59v3.6h-3.59zm9.65-.06h3.59v3.6h-3.59zm9.65.03h3.59v3.6h-3.59zm9.65.04h3.59v3.6h-3.59zm9.65-.07h3.59v3.6h-3.59zm-38.53 9.73h3.59v3.6h-3.59zm9.65-.07h3.59v3.6h-3.59zm9.65.04h3.59v3.6h-3.59zm9.65.03h3.59v3.6h-3.59zm9.65-.06h3.59v3.6h-3.59zm-38.64 9.72h3.59v3.6h-3.59zm9.65-.06h3.59v3.6h-3.59zm9.65.03h3.59v3.6h-3.59zm9.65.04h3.59v3.6h-3.59zm9.65-.07h3.59v3.6h-3.59zm-106.14-28.98h3.59v3.6h-3.59zm9.65.04h3.59v3.6h-3.59zm9.65.03h3.59v3.6h-3.59zm9.65-.06h3.59v3.6h-3.59zm9.65.03h3.59v3.6h-3.59zm-38.63 9.63h3.59v3.6h-3.59zm9.65.03h3.59v3.6h-3.59zm9.65.04h3.59v3.6h-3.59zm9.65-.07h3.59v3.6h-3.59zm9.65.04h3.59v3.6h-3.59zm-38.54 9.62h3.59v3.6h-3.59zm9.65.04h3.59v3.6h-3.59zm9.65.03h3.59v3.6h-3.59zm9.65-.06h3.59v3.6h-3.59zm9.65.03h3.59v3.6h-3.59zm-38.63 9.63h3.59v3.6h-3.59zm9.65.03h3.59v3.6h-3.59zm9.65.04h3.59v3.6h-3.59zm9.65-.07h3.59v3.6h-3.59zm9.65.04h3.59v3.6h-3.59zm9.62-19.4h3.59v3.6h-3.59zm.06 9.67h3.59v3.6h-3.59zm9.65.03h3.59v3.6h-3.59zm-9.68 9.63h3.59v3.6h-3.59zm9.64.04h3.59v3.6h-3.59zm.04-29h3.59v3.6h-3.59zm.04 9.67h3.59v3.6h-3.59zm-9.69-9.63h3.59v3.6h-3.59zm19.31-38.67h3.59v3.6h-3.59zm9.65-.06h3.59v3.6h-3.59zm9.65.03h3.59v3.6h-3.59zm9.65.04h3.59v3.6h-3.59zm9.65-.07h3.59v3.6h-3.59zm-38.64 9.73h3.59v3.6h-3.59zm9.65-.07h3.59v3.6h-3.59zm9.65.04h3.59v3.6h-3.59zm9.65.03h3.59v3.6h-3.59zm9.65-.06h3.59v3.6h-3.59zm-38.63 9.72h3.59v3.6h-3.59zm9.65-.06h3.59v3.6h-3.59zm9.65.03h3.59V83h-3.59zm9.65.04h3.59v3.6h-3.59zm9.65-.07h3.59v3.6h-3.59zm-38.54 9.73h3.59v3.6h-3.59zm9.65-.07h3.59v3.6h-3.59zm9.65.04h3.59v3.6h-3.59zm9.65.03h3.59v3.6h-3.59zm9.65-.06h3.59v3.6h-3.59zm-106.14-28.98h3.59v3.6h-3.59zm9.65.03h3.59v3.6h-3.59zm9.65.04h3.59v3.6h-3.59zm9.65-.07h3.59v3.6h-3.59zm9.65.04h3.59v3.6h-3.59zm-38.64 9.62h3.59v3.6h-3.59zm9.65.04h3.59v3.6h-3.59zm9.65.03h3.59v3.6h-3.59zm9.65-.06h3.59v3.6h-3.59zm9.65.03h3.59v3.6h-3.59zm-38.63 9.63h3.59v3.6h-3.59zm9.65.03h3.59v3.6h-3.59zm9.65.04h3.59v3.6h-3.59zm9.65-.07h3.59v3.6h-3.59zm9.65.04h3.59v3.6h-3.59zm-38.54 9.62h3.59v3.6h-3.59zm9.65.04h3.59v3.6h-3.59zm9.65.03h3.59v3.6h-3.59zm9.65-.06h3.59v3.6h-3.59zm9.65.03h3.59v3.6h-3.59zm9.62-19.39h3.59v3.6h-3.59zm-.03 9.66h3.59v3.6h-3.59zm9.65.04h3.59V83h-3.59zm-9.59 9.63h3.59v3.6h-3.59zm9.65.03h3.59v3.6h-3.59zm-.04-28.99h3.59v3.6h-3.59zm.04 9.67h3.59v3.6h-3.59zm-9.69-9.63h3.59v3.6h-3.59zm-86.52 38.66h3.59v3.6h-3.59zm9.65-.07h3.59v3.6h-3.59zm9.65.04h3.59v3.6h-3.59zm9.65.03h3.59v3.6h-3.59z"></path><path fill="#ffa300" d="M1330.54 98.71h3.59v3.6h-3.59zm-38.64 9.72h3.59v3.6h-3.59zm9.65-.06h3.59v3.6h-3.59zm9.65.03h3.59v3.6h-3.59zm9.65.04h3.59v3.6h-3.59zm9.65-.07h3.59v3.6h-3.59zm-38.53 9.73h3.59v3.6h-3.59zm9.65-.07h3.59v3.6h-3.59zm9.65.04h3.59v3.6h-3.59zm9.65.03h3.59v3.6h-3.59zm9.65-.06h3.59v3.6h-3.59zm-38.64 9.72h3.59v3.6h-3.59zm9.65-.06h3.59v3.6h-3.59zm9.65.03h3.59v3.6h-3.59zm9.65.04h3.59v3.6h-3.59zm9.65-.07h3.59v3.6h-3.59zm-106.14-28.98h3.59v3.6h-3.59zm9.65.04h3.59v3.6h-3.59zm9.65.03h3.59v3.6h-3.59zm9.65-.06h3.59v3.6h-3.59zm9.65.03h3.59v3.6h-3.59zm-38.64 9.63h3.59v3.6h-3.59zm9.65.03h3.59v3.6H1234zm9.65.04h3.59v3.6h-3.59zm9.65-.07h3.59v3.6h-3.59zm9.65.04h3.59v3.6h-3.59zm-38.53 9.62h3.59v3.6h-3.59zm9.65.04h3.59v3.6h-3.59zm9.65.03h3.59v3.6h-3.59zm9.65-.06h3.59v3.6h-3.59zm9.65.03h3.59v3.6h-3.59zm-38.64 9.63h3.59v3.6h-3.59zm9.65.03h3.59v3.6h-3.59zm9.65.04h3.59v3.6h-3.59zm9.65-.07h3.59v3.6h-3.59zm9.65.04h3.59v3.6h-3.59zm9.62-19.4h3.59v3.6h-3.59zm.07 9.67h3.59v3.6h-3.59zm9.65.03h3.59v3.6h-3.59zm-9.69 9.63h3.59v3.6h-3.59zm9.65.04h3.59v3.6h-3.59zm.04-29h3.59v3.6h-3.59zm.03 9.67h3.59v3.6h-3.59zm-9.68-9.63h3.59v3.6h-3.59zm19.3-38.67h3.59v3.6h-3.59zm9.65-.06h3.59v3.6h-3.59zm9.65.03h3.59v3.6h-3.59zm9.65.04h3.59v3.6h-3.59zm9.65-.07h3.59v3.6h-3.59zm-38.63 9.73h3.59v3.6h-3.59zm9.65-.07h3.59v3.6h-3.59zm9.65.04h3.59v3.6h-3.59zm9.65.03h3.59v3.6h-3.59zm9.65-.06h3.59v3.6h-3.59zm-38.64 9.72h3.59v3.6h-3.59zm9.65-.06h3.59v3.6h-3.59zm9.65.03h3.59V83h-3.59zm9.65.04h3.59v3.6h-3.59zm9.65-.07h3.59v3.6h-3.59zm-38.53 9.73h3.59v3.6h-3.59zm9.65-.07h3.59v3.6h-3.59zm9.65.04h3.59v3.6h-3.59zm9.65.03h3.59v3.6h-3.59zm9.65-.06h3.59v3.6h-3.59zm-106.14-28.98h3.59v3.6h-3.59zm9.65.03h3.59v3.6h-3.59zm9.65.04h3.59v3.6h-3.59zm9.65-.07h3.59v3.6h-3.59zm9.64.04h3.59v3.6h-3.59zm-38.63 9.62h3.59v3.6h-3.59zm9.65.04h3.59v3.6h-3.59zm9.65.03h3.59v3.6h-3.59zm9.65-.06h3.59v3.6h-3.59zm9.65.03h3.59v3.6h-3.59zm-38.63 9.63h3.59v3.6h-3.59zm9.65.03h3.59v3.6h-3.59zm9.65.04h3.59v3.6h-3.59zm9.65-.07h3.59v3.6h-3.59zm9.64.04h3.59v3.6h-3.59zm-38.53 9.62h3.59v3.6h-3.59zm9.65.04h3.59v3.6h-3.59zm9.65.03h3.59v3.6h-3.59zm9.65-.06h3.59v3.6h-3.59zm9.65.03h3.59v3.6h-3.59zm9.62-19.39h3.59v3.6h-3.59zm-.04 9.66h3.59v3.6h-3.59zm9.65.04h3.59V83h-3.59zm-9.58 9.63h3.59v3.6h-3.59zm9.65.03h3.59v3.6h-3.59zm-.04-28.99h3.59v3.6h-3.59zm.04 9.67h3.59v3.6h-3.59zm-9.69-9.63h3.59v3.6h-3.59z"></path><rect x="1273.42" y="245.3" width="146.38" height="113.02" rx="4.38" transform="rotate(-180 1346.61 301.815)" fill="#ffca89"></rect><rect x="1293.39" y="272.04" width="91.75" height="4.71" rx="2.34" fill="#faa100"></rect><rect x="1293.39" y="283.02" width="45.88" height="4.71" rx="2.34" fill="#f95b61"></rect><rect x="1293.39" y="304.71" width="41.82" height="5.23" rx="2.6" fill="#fff"></rect><rect x="1340.18" y="304.98" width="37.64" height="4.71" rx="2.34" fill="#f95b61"></rect><rect x="1344.81" y="283.02" width="26.82" height="4.71" rx="2.34" fill="#fff"></rect><rect x="1325.81" y="315.95" width="23.53" height="4.71" rx="2.34" fill="#fff"></rect><rect x="1340.18" y="326.93" width="23.53" height="4.71" rx="2.34" fill="#faa100"></rect><rect x="1355.08" y="315.95" width="44.44" height="4.71" rx="2.34" fill="#f95b61"></rect><rect x="1293.39" y="315.95" width="26.82" height="4.71" rx="2.34" fill="#faa100"></rect><rect x="1293.39" y="294" width="24.7" height="4.71" rx="2.34" fill="#faa100"></rect><rect x="1324.07" y="294" width="34.58" height="4.71" rx="2.34" fill="#f95b61"></rect><rect x="1293.39" y="326.93" width="41.17" height="4.71" rx="2.34" fill="#f95b61"></rect><circle cx="1385.75" cy="443.77" r="19.69" fill="#fa8683"></circle><circle cx="1385.75" cy="443.77" r="4.48" fill="#ffa300" stroke="#fff" stroke-miterlimit="10" stroke-width="2.52"></circle><circle cx="1385.75" cy="443.77" r="29.41" fill="none" stroke="#f95b61" stroke-miterlimit="10" stroke-width="3"></circle></svg> 